 <svg version="1.0" xmlns="http://www.w3.org/2000/svg" width="700.000000pt" height="144.000000pt" viewBox="0 0 700.000000 144.000000" preserveAspectRatio="xMidYMid meet">
<metadata>
Created by potrace 1.12, written by Peter Selinger 2001-2015
</metadata>
<g transform="translate(0.000000,144.000000) scale(0.100000,-0.100000)" fill="#131313" stroke="none">
<path d="M0 700 l0 -700 1421 0 c944 0 1418 3 1414 10 -3 6 -10 10 -14 10 -8
0 -468 227 -1836 905 -738 366 -962 475 -975 475 -7 0 -10 -249 -10 -700z"></path>
<path d="M6845 1354 c-71 -24 -222 -76 -335 -113 -113 -38 -419 -141 -680
-230 -261 -88 -693 -234 -960 -324 -267 -90 -615 -208 -775 -262 -159 -54
-501 -169 -758 -255 -258 -87 -471 -161 -474 -164 -4 -3 926 -6 2065 -6 l2072
0 0 700 c0 554 -3 700 -12 700 -7 -1 -71 -21 -143 -46z"></path>
</g>
</svg>