 <svg version="1.0" xmlns="http://www.w3.org/2000/svg" width="700.000000pt" height="144.000000pt" viewBox="0 0 700.000000 144.000000" preserveAspectRatio="xMidYMid meet">
<metadata>
Created by potrace 1.12, written by Peter Selinger 2001-2015
</metadata>
<g transform="translate(0.000000,144.000000) scale(0.100000,-0.100000)" fill="#C8202F" stroke="none">
<path d="M3700 1251 c-256 -87 -602 -204 -770 -261 -1400 -473 -1370 -462
-2210 -745 -256 -85 -474 -160 -485 -165 -11 -5 -60 -21 -110 -36 -50 -16 -94
-32 -100 -36 -5 -4 1564 -8 3485 -7 l3495 1 -566 281 c-312 155 -789 392
-1060 526 -272 135 -656 325 -853 423 -197 98 -359 178 -360 177 -1 0 -210
-71 -466 -158z"></path>
</g>
</svg>